<svg xmlns="http://www.w3.org/2000/svg" viewBox="0 0 583.71 111.19"><defs><style>.cls-1{isolation:isolate;}.cls-2{fill:#0b424d;}.cls-3{fill:#004d33;}.cls-4{fill:#00bf80;}.cls-5{fill:#6fc;}</style></defs><title>Asset 1</title><g id="Layer_2" data-name="Layer 2"><g id="Layer_1-2" data-name="Layer 1"><g id="Coming-Soon---Desktop"><g id="CONTENT"><g id="_.co" data-name=".co" class="cls-1"><g class="cls-1"><path class="cls-2" d="M539.08,89.59V85.88h3.71v3.71Z"/><path class="cls-2" d="M561,82.56l3.2.42a8.27,8.27,0,0,1-2.68,5.17,7.8,7.8,0,0,1-5.3,1.87,8.27,8.27,0,0,1-6.34-2.57q-2.39-2.58-2.39-7.38a13.27,13.27,0,0,1,1-5.44,7.2,7.2,0,0,1,3.13-3.5A9.39,9.39,0,0,1,556.19,70a7.94,7.94,0,0,1,5.12,1.58A7.24,7.24,0,0,1,563.85,76l-3.16.49a5.21,5.21,0,0,0-1.6-2.91,4.13,4.13,0,0,0-2.77-1,5,5,0,0,0-4,1.76q-1.55,1.77-1.54,5.58c0,2.57.49,4.45,1.48,5.62a4.85,4.85,0,0,0,3.87,1.75,4.54,4.54,0,0,0,3.2-1.18A5.83,5.83,0,0,0,561,82.56Z"/><path class="cls-2" d="M565.73,80q0-5.33,3-7.89a9,9,0,0,1,6-2.13,8.61,8.61,0,0,1,6.47,2.59,9.89,9.89,0,0,1,2.51,7.16,12.73,12.73,0,0,1-1.11,5.83,7.87,7.87,0,0,1-3.24,3.3A9.42,9.42,0,0,1,574.73,90a8.61,8.61,0,0,1-6.51-2.58C566.56,85.72,565.73,83.23,565.73,80Zm3.34,0q0,3.69,1.61,5.52a5.35,5.35,0,0,0,8.08,0c1.07-1.22,1.61-3.1,1.61-5.61a7.94,7.94,0,0,0-1.62-5.4,5.37,5.37,0,0,0-8.07,0A8.16,8.16,0,0,0,569.07,80Z"/></g></g><g id="LOGO"><path id="mintgreen" class="cls-3" d="M181.08,48.66c10.53,0,17.15,6.94,17.15,17.26V92.11h-8.29V65.92c0-6.3-3.64-10.5-10.26-10.5-8.3,0-12.4,7.94-12.4,14.15V92.11H159V65.92c0-6.3-3.63-10.5-10.25-10.5-8.3,0-12.4,7.94-12.4,14.15V92.11h-8.21V49l5.78-.27a56.68,56.68,0,0,1,1.12,10,15.6,15.6,0,0,1,15.11-10.14c7.83,0,13.52,3.84,15.85,10C168.31,53.23,173.15,48.66,181.08,48.66ZM220,35.06a5.52,5.52,0,0,1-5.78,5.39,5.44,5.44,0,0,1-5.68-5.39,5.51,5.51,0,0,1,5.68-5.47A5.59,5.59,0,0,1,220,35.06ZM209.87,92.11V49l8.3-.27V92.11Zm43.24-43.63c10.54,0,17.16,6.94,17.16,17.25V92.11H262V65.73c0-6.3-3.63-10.49-10.25-10.49-9.14,0-13.24,8.12-13.24,14.33V92.11h-8.21V49l5.78-.27a56.68,56.68,0,0,1,1.12,10h.28A16.35,16.35,0,0,1,253.11,48.48Zm55.65,34.87,2.61,6.48a22.78,22.78,0,0,1-11.56,2.83c-11.38,0-15.95-5.93-15.95-17V55.51h-7V49h7V36.25l8.3-.46V49h17.06v6.48H292.16v19.9c0,6.93,2.52,10.4,8.49,10.4A13.49,13.49,0,0,0,308.76,83.35ZM342,85.63c10.45,0,16.69,4.2,16.69,12.14,0,7.39-6.15,13.42-22.93,13.42-15.85,0-23.12-4.57-23.12-11.87,0-4.2,2.51-7.39,7.46-9.13a7.8,7.8,0,0,1-4.29-7.3c0-3.56,2.61-6,5.78-7.21a14.21,14.21,0,0,1-5.22-11.41c0-9.4,7.45-15.7,18.74-15.7a21.84,21.84,0,0,1,12.95,3.75c3.17-1.47,4.57-5,4.57-10.32l7,1.46c0,8.22-5.6,11.41-8.49,11.87a14.46,14.46,0,0,1,2.89,8.94c0,9.4-7.55,15.7-18.83,15.7a26.41,26.41,0,0,1-7.93-1.19c-2.42.37-4,1.37-4,3.11,0,3,3.54,3.74,9.6,3.74Zm-6.8-30.39c-6.34,0-10.54,3.56-10.54,9s4.11,9,10.45,9,10.62-3.56,10.62-9S341.56,55.24,335.22,55.24Zm.56,49.19c10.63,0,14.82-2,14.82-6.66,0-4.38-3.54-5.29-10.16-5.29h-9.79c-7.74,0-9.88,2.55-9.88,5.66C320.77,102.52,325.06,104.43,335.78,104.43Zm49.39-56a22.83,22.83,0,0,1,5.69.73l-2.05,8.13a7.86,7.86,0,0,0-4.1-1c-4.94,0-10.54,4.29-10.54,13.24V92.11H366V49l5.78-.27a56.68,56.68,0,0,1,1.12,10h.37C374.92,53.14,378.65,48.48,385.17,48.48Zm49.31,24.28h-33c.84,7.94,6.34,13.14,15.11,13.14,6.71,0,10.53-3.1,12.49-5.65l5,4.47c-4.1,5.29-10.62,7.94-18.18,7.94-14.07,0-22.93-8.85-22.93-22,0-12.87,8.48-22.18,21.82-22.18,12.95,0,20,8.86,20,20.17A19.49,19.49,0,0,1,434.48,72.76ZM414.81,55.24c-7.09,0-11.94,4.83-13.15,11.77h24.8C426.37,59.89,421.8,55.24,414.81,55.24Zm68.13,17.52h-33c.84,7.94,6.34,13.14,15.1,13.14,6.71,0,10.54-3.1,12.49-5.65l5,4.47c-4.1,5.29-10.63,7.94-18.18,7.94-14.08,0-22.94-8.85-22.94-22,0-12.87,8.49-22.18,21.82-22.18,13,0,20,8.86,20,20.17A19.49,19.49,0,0,1,482.94,72.76ZM463.27,55.24c-7.09,0-11.93,4.83-13.15,11.77h24.8C474.83,59.89,470.26,55.24,463.27,55.24Zm52.1-6.76c10.53,0,17.15,6.94,17.15,17.25V92.11h-8.29V65.73c0-6.3-3.64-10.49-10.26-10.49-9.14,0-13.24,8.12-13.24,14.33V92.11h-8.2V49l5.78-.27a57.64,57.64,0,0,1,1.12,10h.28A16.35,16.35,0,0,1,515.37,48.48Z"/><g id="Group"><path id="Fill-3-Copy-6" class="cls-4" d="M48.19,54.47,92.72,99.13a.57.57,0,0,1,0,.8.56.56,0,0,1-.4.17l-45.57.1A47,47,0,0,1,0,55.65a2.68,2.68,0,0,1,2.73-2.81l41.41-.05A5.71,5.71,0,0,1,48.19,54.47Z"/><path id="Fill-3-Copy-5" class="cls-5" d="M52,44.75l0-42A2.68,2.68,0,0,1,54.87,0,46.92,46.92,0,0,1,99.12,46.92L99,92.66a.57.57,0,0,1-.57.57.58.58,0,0,1-.41-.17L53.7,48.79A5.66,5.66,0,0,1,52,44.75Z"/></g></g></g></g></g></g></svg>