<?xml version="1.0" encoding="UTF-8"?>
<svg width="69px" height="80px" viewBox="0 0 69 80" version="1.1" xmlns="http://www.w3.org/2000/svg" xmlns:xlink="http://www.w3.org/1999/xlink">
    <!-- Generator: Sketch 50.2 (55047) - http://www.bohemiancoding.com/sketch -->
    <title>Group 5</title>
    <desc>Created with Sketch.</desc>
    <defs></defs>
    <g id="Page-1" stroke="none" stroke-width="1" fill="none" fill-rule="evenodd">
        <g id="Thermal-Exchange" transform="translate(-157.000000, -18.000000)">
            <g id="Group-5" transform="translate(157.000000, 18.000000)">
                <path d="M57.045304,51.4157706 L67.869337,51.4157706 C68.3928297,51.4157706 68.8172043,51.8401453 68.8172043,52.3636379 L68.8172043,79.0521327 C68.8172043,79.5756254 68.3928297,80 67.869337,80 L0.947867299,80 C0.424374645,80 3.83886764e-15,79.5756254 3.77475828e-15,79.0521327 L0,76.0573477 C-3.20838111e-16,73.4375057 0.299586064,70.8262562 0.892919915,68.2744868 L8.20953351,36.8076987 C8.32809253,36.2978082 8.0108557,35.7883492 7.5009652,35.6697902 C7.43058124,35.6534246 7.35855667,35.6451613 7.2862951,35.6451613 L6.35988381,35.6451613 C5.54931454,35.6451613 4.89221832,34.9832167 4.89221832,34.1666667 C4.89221832,33.3501166 5.54931454,32.688172 6.35988381,32.688172 L18.7535035,32.688172 C19.5640728,32.688172 20.221169,33.3501166 20.221169,34.1666667 C20.221169,34.9832167 19.5640728,35.6451613 18.7535035,35.6451613 L17.8246806,35.6451613 C17.301188,35.6451613 16.8768133,36.0695359 16.8768133,36.5930286 C16.8768133,36.6646656 16.8849344,36.7360716 16.901021,36.8058791 L24.8682953,71.3796785 C24.9674351,71.8098933 25.3504649,72.1146953 25.7919549,72.1146953 L26.4485553,72.1146953 C26.9720479,72.1146953 27.3964226,71.6903207 27.3964226,71.166828 L27.3964226,51.8256036 C27.3964226,51.564081 27.5044737,51.3141788 27.6950054,51.135037 L35.5837075,43.7179223 C35.9650969,43.3593325 36.5649686,43.3778151 36.9235584,43.7592045 C37.0888398,43.9349946 37.1808592,44.1672005 37.1808592,44.4084889 L37.1808592,49.2272279 C37.1808592,49.7507206 37.6052338,50.1750952 38.1287265,50.1750952 C38.369612,50.1750952 38.6014611,50.0833822 38.7771606,49.918593 L45.0428465,44.0419805 C45.4246769,43.6838602 46.0245254,43.7030811 46.3826457,44.0849114 C46.5474349,44.2606109 46.6391479,44.4924601 46.6391479,44.7333455 L46.6391479,49.2272279 C46.6391479,49.7507206 47.0635226,50.1750952 47.5870152,50.1750952 C47.8279007,50.1750952 48.0597499,50.0833822 48.2354493,49.918593 L54.5011353,44.0419805 C54.8829656,43.6838602 55.4828142,43.7030811 55.8409344,44.0849114 C56.0057237,44.2606109 56.0974367,44.4924601 56.0974367,44.7333455 L56.0974367,50.4679033 C56.0974367,50.991396 56.5218113,51.4157706 57.045304,51.4157706 Z M37.7720022,56.344086 C36.7250169,56.344086 35.8762676,57.1928353 35.8762676,58.2398206 L35.8762676,70.5475151 C35.8762676,71.5945004 36.7250169,72.4432497 37.7720022,72.4432497 L39.1988993,72.4432497 C40.2458846,72.4432497 41.0946338,71.5945004 41.0946338,70.5475151 L41.0946338,58.2398206 C41.0946338,57.1928353 40.2458846,56.344086 39.1988993,56.344086 L37.7720022,56.344086 Z M47.5564389,56.344086 C46.5094536,56.344086 45.6607043,57.1928353 45.6607043,58.2398206 L45.6607043,70.5475151 C45.6607043,71.5945004 46.5094536,72.4432497 47.5564389,72.4432497 L48.9833359,72.4432497 C50.0303212,72.4432497 50.8790705,71.5945004 50.8790705,70.5475151 L50.8790705,58.2398206 C50.8790705,57.1928353 50.0303212,56.344086 48.9833359,56.344086 L47.5564389,56.344086 Z M57.3408755,56.344086 C56.2938902,56.344086 55.4451409,57.1928353 55.4451409,58.2398206 L55.4451409,70.5475151 C55.4451409,71.5945004 56.2938902,72.4432497 57.3408755,72.4432497 L58.7677725,72.4432497 C59.8147578,72.4432497 60.6635071,71.5945004 60.6635071,70.5475151 L60.6635071,58.2398206 C60.6635071,57.1928353 59.8147578,56.344086 58.7677725,56.344086 L57.3408755,56.344086 Z" id="Combined-Shape" fill="#009966"></path>
                <circle id="Oval-7" fill="#66FFCC" cx="14.6236559" cy="27.5268817" r="2.58064516"></circle>
                <circle id="Oval-7-Copy" fill="#66FFCC" cx="17.6344086" cy="22.7956989" r="3.87096774"></circle>
                <circle id="Oval-7-Copy-3" fill="#66FFCC" cx="20.2150538" cy="16.7741935" r="5.59139785"></circle>
                <circle id="Oval-7-Copy-2" fill="#66FFCC" cx="21.9354839" cy="7.31182796" r="7.31182796"></circle>
                <circle id="Oval-6" fill="#66FFCC" cx="21.9354839" cy="7.31182796" r="4.7311828"></circle>
                <circle id="Oval-6-Copy" fill="#66FFCC" cx="20.2150538" cy="16.7741935" r="3.01075269"></circle>
                <circle id="Oval-6-Copy-2" fill="#66FFCC" cx="17.6344086" cy="23.655914" r="2.15053763"></circle>
                <circle id="Oval-6-Copy-3" fill="#66FFCC" cx="15.0537634" cy="27.9569892" r="1.29032258"></circle>
            </g>
        </g>
    </g>
</svg>