<?xml version="1.0" encoding="UTF-8"?>
<svg width="99px" height="66px" viewBox="0 0 99 66" version="1.1" xmlns="http://www.w3.org/2000/svg" xmlns:xlink="http://www.w3.org/1999/xlink">
    <!-- Generator: Sketch 50.2 (55047) - http://www.bohemiancoding.com/sketch -->
    <title>pwr-deals</title>
    <desc>Created with Sketch.</desc>
    <defs></defs>
    <g id="Page-1" stroke="none" stroke-width="1" fill="none" fill-rule="evenodd">
        <g id="Power-Agreements" transform="translate(-141.000000, -38.000000)">
            <g id="pwr-deals" transform="translate(137.000000, 21.000000)">
                <g id="Group-4" transform="translate(54.214297, 49.871875) rotate(-345.000000) translate(-54.214297, -49.871875) translate(9.619702, 10.232236)" fill="#66FFCC" opacity="0.800000012">
                    <g id="Group-3" transform="translate(-0.000000, 0.000000)">
                        <path d="M48.2219061,38.2207898 L66.1699875,33.5571726 C66.7326554,33.4109693 67.307309,33.7485806 67.4535123,34.3112486 C67.5232207,34.5795236 67.4843001,34.8644667 67.3451996,35.1042204 L43.0726499,76.9404073 C42.7809069,77.4432557 42.1367632,77.6143906 41.6339147,77.3226475 C41.3093184,77.134323 41.1095306,76.7874316 41.1095306,76.4121598 L41.1095306,41.2023506 L23.1614492,45.8659679 C22.5987813,46.0121711 22.0241277,45.6745598 21.8779244,45.1118919 C21.808216,44.8436168 21.8471366,44.5586737 21.9862371,44.31892 L46.2587868,2.48273315 C46.5505298,1.97988467 47.1946735,1.80874987 47.697522,2.10049287 C48.0221183,2.28881741 48.2219061,2.63570879 48.2219061,3.01098059 L48.2219061,38.2207898 Z" id="Combined-Shape" transform="translate(44.665718, 39.711570) rotate(-60.000000) translate(-44.665718, -39.711570) "></path>
                    </g>
                </g>
                <path d="M22.6511601,50.8499333 C18.0099281,50.0441699 15.345237,50.8200285 14.2956957,52.9468445 C12.5531643,56.4779526 9.24614267,57.4408339 4.93917683,55.8731506 L4.93917683,55.8731506 C4.1999767,55.6040907 3.81628474,54.7890649 4.07990146,54.0479062 L4.09042614,54.018316 C4.35155083,53.2841636 5.15838231,52.9006989 5.89253469,53.1618236 C5.89579316,53.1629826 5.89904736,53.1641535 5.90229722,53.1653365 C8.95649182,54.2770262 10.7196588,53.7636578 11.7563441,51.6628935 C13.4860195,48.1578371 17.3991399,47.0184824 23.1343141,48.014165 L23.78371,48.1269065 C24.2406841,47.2321706 25.1612215,46.6208422 26.2223761,46.6208422 L28.1664898,46.6208422 C29.0963903,43.6196754 31.858417,41.4431003 35.1210975,41.4431003 L41.4638032,41.4431003 L41.4638032,40.2998353 C41.4638032,39.3425832 42.2280364,38.566577 43.1707658,38.566577 L43.354196,38.566577 C44.2969255,38.566577 45.0611587,39.3425832 45.0611587,40.2998353 L45.0611587,42.7854778 L52.5443899,42.7854778 C53.5352767,42.7854778 54.3385491,43.6011246 54.3385491,44.6072759 C54.3385491,45.6134272 53.5352767,46.4290739 52.5443899,46.4290739 L45.0611587,46.4290739 L45.0611587,53.3327297 L52.5443899,53.3327297 C53.5352767,53.3327297 54.3385491,54.1483765 54.3385491,55.1545278 C54.3385491,56.1606791 53.5352767,56.9763259 52.5443899,56.9763259 L45.0611587,56.9763259 L45.0611587,59.4619684 C45.0611587,60.4192205 44.2969255,61.1952266 43.354196,61.1952266 L43.1707658,61.1952266 C42.2280364,61.1952266 41.4638032,60.4192205 41.4638032,59.4619684 L41.4638032,58.7022398 L35.1210975,58.7022398 C31.7209853,58.7022398 28.8645927,56.338438 28.0588328,53.1409615 L26.2223761,53.1409615 C24.9276808,53.1409615 23.8423082,52.2309384 23.552797,51.0064664 L22.6511601,50.8499333 Z" id="Combined-Shape" fill="#009966"></path>
                <g id="Group-14" transform="translate(27.927928, 18.018018)" stroke="#FFFFFF" stroke-linecap="round" stroke-linejoin="bevel" stroke-width="1.3">
                    <path d="M24.3243243,20.649597 L24.3243243,0.45045045" id="Line-2-Copy-2"></path>
                    <path d="M31.6306389,24.8329772 L46.0706042,10.5500237 L31.6306389,24.8329772 Z" id="Line-2-Copy-3"></path>
                    <path d="M35.0341714,32.4324324 L55.4553661,32.4324324 L35.0341714,32.4324324 Z" id="Line-2-Copy-4"></path>
                    <path d="M32.8339694,40.8487435 L47.2739346,55.131697 L32.8339694,40.8487435 Z" id="Line-2-Copy-5"></path>
                    <path d="M23.1218078,44.2152679 L23.1218078,64.4144144 L23.1218078,44.2152679 Z" id="Line-2-Copy-6"></path>
                    <path d="M14.9403764,40.3557274 L0.500411128,54.6386809 L14.9403764,40.3557274 Z" id="Line-2-Copy-7"></path>
                </g>
                <path d="M83.6409943,48.9136719 C88.2852976,49.7185376 90.9519963,48.9420925 92.0026876,46.8149408 C93.7471284,43.2832754 97.0566417,42.3196662 101.366296,43.8865635 L101.366296,43.8865635 C102.105804,44.1554326 102.48965,44.9707787 102.225696,45.7120551 L102.215384,45.7410148 C101.953684,46.475962 101.145742,46.8596043 100.410794,46.597904 C100.40785,46.5968554 100.404909,46.5957971 100.401971,46.5947291 C97.34587,45.4835967 95.5813746,45.9973532 94.5435533,48.0984491 C92.8119826,51.6040586 88.8959139,52.7442746 83.1569446,51.7497014 L82.5057451,51.6368474 C82.0478871,52.5305776 81.1275542,53.1409615 80.0668217,53.1409615 L78.1200291,53.1409615 C77.18824,56.1423752 74.4251157,58.3187034 71.1613957,58.3187034 L64.8139112,58.3187034 L64.8139112,59.4619684 C64.8139112,60.4192205 64.04968,61.1952266 63.106953,61.1952266 L62.9208036,61.1952266 C61.9780766,61.1952266 61.2138454,60.4192205 61.2138454,59.4619684 L61.2138454,40.2998353 C61.2138454,39.3425832 61.9780766,38.566577 62.9208036,38.566577 L63.106953,38.566577 C64.04968,38.566577 64.8139112,39.3425832 64.8139112,40.2998353 L64.8139112,41.0595639 L71.1613957,41.0595639 C74.5625791,41.0595639 77.42011,43.4230808 78.2279205,46.6208422 L80.0668217,46.6208422 C81.3626034,46.6208422 82.4488688,47.5317093 82.7384865,48.7572658 L83.6409943,48.9136719 Z" id="Combined-Shape" fill="#00BF80"></path>
            </g>
        </g>
    </g>
</svg>