<?xml version="1.0" encoding="UTF-8"?>
<svg width="96px" height="75px" viewBox="0 0 96 75" version="1.1" xmlns="http://www.w3.org/2000/svg" xmlns:xlink="http://www.w3.org/1999/xlink">
    <!-- Generator: Sketch 50.2 (55047) - http://www.bohemiancoding.com/sketch -->
    <title>installation</title>
    <desc>Created with Sketch.</desc>
    <defs></defs>
    <g id="Page-1" stroke="none" stroke-width="1" fill="none" fill-rule="evenodd">
        <g id="installation" transform="translate(-1.000000, -9.000000)">
            <g id="hammer" transform="translate(49.331092, 49.418647) rotate(-45.000000) translate(-49.331092, -49.418647) translate(25.331092, 4.918647)">
                <path d="M19.7339246,22.6926606 L29.0465632,22.6926606 L31.1259159,84.8662889 C31.199594,87.0692979 29.4734302,88.9149174 27.2704212,88.9885955 C27.2259681,88.9900822 27.1814933,88.9908257 27.1370153,88.9908257 L21.6434725,88.9908257 C19.4392318,88.9908257 17.6523417,87.2039356 17.6523417,84.9996949 C17.6523417,84.9552169 17.6530852,84.910742 17.6545719,84.8662889 L19.7339246,22.6926606 Z" id="Rectangle" fill="#009966"></path>
                <path d="M33.1319051,14.565013 L27.0374967,15.8412418 C26.1916816,16.0183657 25.5258311,16.6707541 25.3314708,17.5127756 C24.833577,19.6697859 24.7209974,21.5642369 24.993732,23.1961284 C25.2638752,24.8125151 25.9652526,26.0832819 27.0978639,27.008429 L27.0978625,27.0084307 C27.6134052,27.4295397 27.9124762,28.0599903 27.9124762,28.7256606 L27.9124663,31.9279858 C27.9124663,33.1525601 26.9197556,34.1452753 25.6951813,34.1452807 L15.9644764,34.145358 C14.7398983,34.1453635 13.7471771,33.1526512 13.7471717,31.928073 C13.7471717,31.9280649 13.7471717,31.9280568 13.7471717,31.9280488 L13.7472084,28.4248266 C13.7472119,27.8908387 13.9399211,27.3747884 14.2899251,26.9715016 C15.8246639,25.2031218 16.6035924,23.628235 16.6267105,22.2468411 C16.6497852,20.8680459 15.9291495,19.3185683 14.4648036,17.5984083 L14.46481,17.5984029 C14.1233891,17.1973376 13.9358903,16.6878302 13.9358903,16.1611219 L13.9358926,4.12334255 C13.9358926,3.78922787 14.0114001,3.45943305 14.1567729,3.15860192 C19.3728442,-7.63541776 25.8889718,-13.2226324 33.7051556,-13.6030419 C33.7051556,-13.6030419 33.7051556,-13.6030419 33.7051556,-13.6030419 L33.7051556,-13.6030419 C33.9766336,-13.6162545 34.207421,-13.4068892 34.2206337,-13.1354112 C34.2271667,-13.0011791 34.1785212,-12.8701143 34.0859925,-12.7726497 C25.7812443,-4.02497236 23.6410462,1.63633986 27.6653537,4.21124462 L33.1319051,5.10115288 L33.1319051,14.565013 Z" id="Path-8" fill="#94FFDB" transform="translate(23.983569, 10.270864) rotate(-270.000000) translate(-23.983569, -10.270864) "></path>
            </g>
            <g id="Group" transform="translate(57.712584, 47.854883) rotate(-315.000000) translate(-57.712584, -47.854883) translate(44.712584, -0.645117)">
                <path d="M6.90133038,29.8119266 L14.8281596,29.8119266 L14.8281596,80.9387774 C15.1874848,82.4129453 15.4923629,83.2429858 15.7427938,83.4288991 L5.98669623,83.4288991 C6.3932003,82.6794891 6.69807834,81.8494485 6.90133038,80.9387774 L6.90133038,29.8119266 Z" id="Rectangle-20" fill="#00BF80"></path>
                <path d="M10.7538803,96.1100917 C6.77400125,96.1100917 3.54767184,92.8728846 3.54767184,88.8795872 C3.54767184,84.8862897 6.77400125,81.6490826 10.7538803,81.6490826 C14.7337593,81.6490826 17.9600887,84.8862897 17.9600887,88.8795872 C17.9600887,92.8728846 14.7337593,96.1100917 10.7538803,96.1100917 Z M10.7538803,84.3605218 L7.56915599,85.6841254 L6.25,88.8795872 L7.56915599,92.0750489 L10.7538803,93.3986525 L13.9386045,92.0750489 L15.2577605,88.8795872 L13.9386045,85.6841254 L10.7538803,84.3605218 Z" id="Combined-Shape" fill="#66FFCC"></path>
                <path d="M6.95876578,27.587156 C6.00686391,25.4887955 4.85820353,23.6844571 3.51278463,22.1741409 C-1.44225438,16.6118022 -1.15521036,10.1649099 4.3739167,2.83346412 L4.37380289,2.83337829 C4.48887706,2.68079361 4.70585743,2.65038534 4.8584421,2.76545951 C4.91752216,2.81001568 4.96076336,2.87233724 4.98181867,2.9432765 L7.94493949,12.9265805 C12.9914601,15.2317584 16.618035,14.5435455 18.8246642,10.8619418 L16.5806005,0.789322631 C16.5617372,0.704632781 16.5535645,0.617912353 16.5562734,0.531189485 C16.5696359,0.103403121 16.6984711,-0.0659992127 16.9427791,0.0229824834 C23.17773,2.29387245 25.4267809,7.43505511 25.6921747,11.345621 C26.1215637,17.6726488 21.5864144,20.7170948 19.0711665,23.095148 C17.3943346,24.6805169 15.9790113,26.1778528 14.8251967,27.587156 L6.95876578,27.587156 Z" id="Path-9" fill="#66FFCC"></path>
            </g>
        </g>
    </g>
</svg>