<?xml version="1.0" encoding="UTF-8"?>
<svg width="80px" height="63px" viewBox="0 0 80 63" version="1.1" xmlns="http://www.w3.org/2000/svg" xmlns:xlink="http://www.w3.org/1999/xlink">
    <!-- Generator: Sketch 50.2 (55047) - http://www.bohemiancoding.com/sketch -->
    <title>Group Copy</title>
    <desc>Created with Sketch.</desc>
    <defs></defs>
    <g id="Page-1" stroke="none" stroke-width="1" fill="none" fill-rule="evenodd">
        <g id="Supply-Chain" transform="translate(-155.000000, -34.000000)">
            <g id="Thermal-Exchange-Copy">
                <g id="Group-Copy" transform="translate(146.000000, 27.000000)">
                    <path d="M41.2386736,33.7430939 L56.8912438,42.8073204 L56.8912438,60.9357735 L43.1764398,68.8778615 C41.97783,69.5719629 40.4995172,69.5719629 39.3009074,68.8778615 L27.5151471,62.0528609 C26.3212103,61.3614656 25.5861034,60.0863055 25.5861034,58.7066271 L25.5861034,42.8073204 L41.2386736,33.7430939 Z" id="Polygon" fill="#009966"></path>
                    <path d="M72.5669944,33.7430939 L86.2905209,41.690233 C87.4844577,42.3816284 88.2195646,43.6567884 88.2195646,45.0364669 L88.2195646,58.7066271 C88.2195646,60.0863055 87.4844577,61.3614656 86.2905209,62.0528609 L74.5047606,68.8778615 C73.3061508,69.5719629 71.827838,69.5719629 70.6292282,68.8778615 L56.9144242,60.9357735 L56.9144242,42.8073204 L72.5669944,33.7430939 Z" id="Polygon-Copy-3" fill="#00B5D9"></path>
                    <path d="M56.9510314,6.57458564 L72.6036016,15.6388122 L72.6036016,33.7672652 L58.8887976,41.7093532 C57.6901878,42.4034546 56.2118751,42.4034546 55.0132652,41.7093532 L43.2275049,34.8843526 C42.0335681,34.1929573 41.2984612,32.9177972 41.2984612,31.5381188 L41.2984612,15.6388122 L56.9510314,6.57458564 Z" id="Polygon" fill="#66FFCC" transform="translate(56.951031, 24.703039) rotate(-180.000000) translate(-56.951031, -24.703039) "></path>
                    <path d="M27.5247879,7.75761285 L39.3105482,14.5826135 C40.504485,15.2740088 41.2395919,16.5491689 41.2395919,17.9288473 L41.2395919,31.5990075 C41.2395919,32.9786859 40.504485,34.253846 39.3105482,34.9452413 L25.5870217,42.8923804 L9.93445151,33.8281539 L9.93445151,15.6997009 L23.6492555,7.75761285 C24.8478653,7.06351144 26.3261781,7.06351144 27.5247879,7.75761285 Z" id="Polygon-Copy-3" fill="#00BF80" transform="translate(25.587022, 24.763927) rotate(-120.000000) translate(-25.587022, -24.763927) "></path>
                </g>
            </g>
        </g>
    </g>
</svg>