<?xml version="1.0" encoding="UTF-8"?>
<svg width="116px" height="90px" viewBox="0 0 116 90" version="1.1" xmlns="http://www.w3.org/2000/svg" xmlns:xlink="http://www.w3.org/1999/xlink">
    <!-- Generator: Sketch 50.2 (55047) - http://www.bohemiancoding.com/sketch -->
    <title>pig</title>
    <desc>Created with Sketch.</desc>
    <defs>
        <path d="M49.6182057,85.0276243 C42.4467885,85.0276243 35.6307143,83.8460275 29.4751395,81.7198332 L29.8700544,82.0021784 L26.5939121,86.519337 C26.5359307,87.5257169 23.6480032,88.1935795 20.085564,88.1935795 C16.5231248,88.1935795 13.6351973,87.5257169 13.6351973,86.7018668 C13.6351973,86.6433297 12.8212704,81.3675949 11.1934166,70.8746622 C4.19723941,64.2323676 0,55.7427214 0,46.4917127 C0,25.2089164 15.6794608,5.96119905 49.6182057,7.9558011 C55.9289717,7.9558011 61.9645671,8.8708061 67.5170445,10.539314 L77.6416094,1.34790178 C78.773885,0.153159916 80.6582494,0.104473595 81.8504552,1.23915784 C82.2671871,1.63578334 82.5604506,2.1448111 82.6948432,2.70479204 L87.6130842,21.7061753 C89.014128,23.0002957 90.3075723,24.3670172 91.4827159,25.7980294 C91.9284306,25.4129266 92.3628735,25.6771507 92.7860447,26.5907018 C95.2110306,31.8258134 98.6388995,35.4986899 103.069651,37.6093312 C103.432204,37.4022842 103.810011,37.2928177 104.198232,37.2928177 C106.93857,37.2928177 109.160053,42.7470283 109.160053,49.4751381 C109.160053,56.1435787 106.977798,61.5606154 104.271018,61.6561745 C104.154275,61.7606545 104.024371,61.8128945 103.881307,61.8128945 C101.215806,61.8128945 91.0861779,71.7470224 84.3638937,75.2896117 C79.8823708,77.6513379 77.297801,78.832201 76.6101843,78.832201 L77.4940816,85.619309 C77.6063474,85.6917873 77.6784466,85.7787952 77.7056401,85.8804988 C77.9184156,86.6762769 75.3013804,88.0704233 71.8603284,88.9944118 C68.779752,89.8216057 66.0831063,89.99156 65.3992593,89.447119 L60.2186235,84.1462307 C56.8031703,84.7235113 53.2564162,85.0276243 49.6182057,85.0276243 Z" id="path-1"></path>
    </defs>
    <g id="Page-1" stroke="none" stroke-width="1" fill="none" fill-rule="evenodd">
        <g id="Coin-Management" transform="translate(-134.000000, -28.000000)">
            <g id="pig" transform="translate(133.000000, 28.000000)">
                <g id="Path-15" transform="translate(6.946549, 0.000000)">
                    <mask id="mask-2" fill="white">
                        <use xlink:href="#path-1"></use>
                    </mask>
                    <use id="Mask" fill="#88FCD5" xlink:href="#path-1"></use>
                    <path d="M31.8087277,10.4099836 C42.6918608,8.20003887 51.9412049,7.46339062 59.55676,8.20003887" stroke="#3A6B5B" stroke-width="3.84" opacity="0.5" stroke-linejoin="round" mask="url(#mask-2)" transform="translate(45.682744, 9.166890) rotate(4.000000) translate(-45.682744, -9.166890) "></path>
                    <path d="M80.4806167,2.8540813 C79.5024821,7.22824699 79.1817626,13.6686214 79.5184584,22.1752044 L88.0097124,22.1752044 L85.3203833,4.81524089 C83.0720069,-0.866364532 81.4587514,-1.5200844 80.4806167,2.8540813 Z" id="Path-13" fill="#81F0CB" mask="url(#mask-2)"></path>
                    <ellipse id="Oval-9-Copy-4" fill="#2EA67E" mask="url(#mask-2)" transform="translate(92.587657, 24.414440) rotate(-22.000000) translate(-92.587657, -24.414440) " cx="92.5876574" cy="24.4144397" rx="1.48854617" ry="3.74132265"></ellipse>
                </g>
                <ellipse id="Oval-7-Copy" fill="#E1FCF3" opacity="0.5" cx="111.144781" cy="49.4751381" rx="4.96182057" ry="12.1823204"></ellipse>
                <ellipse id="Oval-9" fill="#2EA67E" cx="113.873782" cy="46.9889503" rx="1.24045514" ry="1.24309392"></ellipse>
                <ellipse id="Oval-9-Copy" fill="#2EA67E" cx="109.904326" cy="49.4751381" rx="1.24045514" ry="1.24309392"></ellipse>
                <ellipse id="Oval-9-Copy-2" fill="#2EA67E" transform="translate(93.580021, 34.856429) rotate(-22.000000) translate(-93.580021, -34.856429) " cx="93.5800215" cy="34.8564287" rx="1.48854617" ry="3.74132265"></ellipse>
                <path d="M69.9411637,24.6337629 C69.9411637,23.5892755 77.4553556,15.0456972 80.0998165,15.5662374 C82.7442774,16.0867775 85.3228074,33.0505133 85.3228074,34.9356737 C74.0794352,31.216041 69.9411637,25.6782503 69.9411637,24.6337629 Z" id="Path-12" fill="#81F0CB" transform="translate(77.631986, 25.239541) scale(-1, 1) rotate(21.000000) translate(-77.631986, -25.239541) "></path>
                <path d="M8.83011867,40.0069698 C-0.089198759,42.0944513 0.0844325791,35.8468459 3.11395504,35.8468459 C6.1434775,35.8468459 5.68011231,40.7448307 3.28414815,42.5247558" id="Path-4" stroke="#2EA67E" stroke-width="1.92" opacity="0.800000012" stroke-linecap="round" transform="translate(5.034791, 39.185801) rotate(26.000000) translate(-5.034791, -39.185801) "></path>
            </g>
        </g>
    </g>
</svg>