<svg xmlns="http://www.w3.org/2000/svg" viewBox="0 0 532.52 111.2"><defs><style>.cls-1{fill:#004d33;}.cls-2{fill:#00bf80;}.cls-3{fill:#6fc;}</style></defs><title>Asset 2</title><g id="Layer_2" data-name="Layer 2"><g id="Layer_1-2" data-name="Layer 1"><path id="mintgreen" class="cls-1" d="M181.08,48.67c10.53,0,17.15,6.94,17.15,17.26V92.12h-8.29V65.93c0-6.3-3.64-10.5-10.26-10.5-8.3,0-12.4,7.94-12.4,14.15V92.12H159V65.93c0-6.3-3.63-10.5-10.25-10.5-8.3,0-12.4,7.94-12.4,14.15V92.12h-8.21V49l5.78-.27a56,56,0,0,1,1.12,10A15.59,15.59,0,0,1,150.15,48.6c7.83,0,13.52,3.84,15.85,10A15.72,15.72,0,0,1,181.08,48.67ZM220,35.07a5.52,5.52,0,0,1-5.64,5.39h-.14a5.44,5.44,0,0,1-5.67-5.2c0-.06,0-.13,0-.19a5.52,5.52,0,0,1,5.55-5.48h.13A5.58,5.58,0,0,1,220,35ZM209.87,92.12V49l8.3-.27V92.12Zm43.24-43.63c10.54,0,17.16,6.94,17.16,17.25V92.12H262V65.74c0-6.3-3.63-10.49-10.25-10.49-9.14,0-13.24,8.12-13.24,14.33V92.12H230.3V49l5.78-.27a56,56,0,0,1,1.12,10h.28A16.36,16.36,0,0,1,253.11,48.49Zm55.65,34.87,2.61,6.48a22.85,22.85,0,0,1-11.56,2.83c-11.38,0-15.95-5.93-15.95-17V55.52h-7V49h7V36.26l8.3-.46V49h17.06v6.48H292.16v19.9c0,6.93,2.52,10.4,8.49,10.4A13.48,13.48,0,0,0,308.76,83.36ZM342,85.64c10.45,0,16.69,4.2,16.69,12.14,0,7.39-6.15,13.42-22.93,13.42-15.85,0-23.12-4.57-23.12-11.87,0-4.2,2.51-7.39,7.46-9.13a7.81,7.81,0,0,1-4.29-7.3c0-3.56,2.61-6,5.78-7.21a14.25,14.25,0,0,1-5.22-11.41c0-9.4,7.45-15.7,18.74-15.7a21.76,21.76,0,0,1,12.95,3.75c3.17-1.47,4.57-5,4.57-10.32l7,1.46c0,8.22-5.6,11.41-8.49,11.87A14.45,14.45,0,0,1,354,64.28c0,9.4-7.55,15.7-18.83,15.7a26.65,26.65,0,0,1-7.93-1.19c-2.42.37-4,1.37-4,3.11,0,3,3.54,3.74,9.6,3.74Zm-6.8-30.39c-6.34,0-10.54,3.56-10.54,9s4.11,9,10.45,9,10.62-3.56,10.62-9-4.17-9-10.51-9Zm.56,49.19c10.63,0,14.82-2,14.82-6.66,0-4.38-3.54-5.29-10.16-5.29h-9.79c-7.74,0-9.88,2.55-9.88,5.66,0,4.38,4.31,6.29,15,6.29Zm49.39-56a22.77,22.77,0,0,1,5.69.73l-2,8.13a7.82,7.82,0,0,0-4.1-1c-4.94,0-10.54,4.29-10.54,13.24V92.12H366V49l5.78-.27a56,56,0,0,1,1.12,10h.37c1.65-5.59,5.38-10.25,11.9-10.25Zm49.31,24.28h-33c.84,7.94,6.34,13.14,15.11,13.14,6.71,0,10.53-3.1,12.49-5.65l5,4.47c-4.1,5.29-10.62,7.94-18.18,7.94-14.07,0-22.93-8.85-22.93-22,0-12.87,8.48-22.18,21.82-22.18,13,0,20,8.86,20,20.17a18.76,18.76,0,0,1-.29,4.16ZM414.81,55.25c-7.09,0-11.94,4.83-13.15,11.77h24.8C426.37,59.9,421.8,55.25,414.81,55.25Zm68.13,17.52h-33c.84,7.94,6.34,13.14,15.1,13.14,6.71,0,10.54-3.1,12.49-5.65l5,4.47c-4.1,5.29-10.63,7.94-18.18,7.94-14.08,0-22.94-8.85-22.94-22,0-12.87,8.49-22.18,21.82-22.18,13,0,20,8.86,20,20.17A19.57,19.57,0,0,1,482.94,72.77ZM463.27,55.25c-7.09,0-11.93,4.83-13.15,11.77h24.8C474.83,59.9,470.26,55.25,463.27,55.25Zm52.1-6.76c10.53,0,17.15,6.94,17.15,17.25V92.12h-8.29V65.74c0-6.3-3.64-10.49-10.26-10.49-9.14,0-13.24,8.12-13.24,14.33V92.12h-8.2V49l5.78-.27a56.92,56.92,0,0,1,1.12,10h.28A16.34,16.34,0,0,1,515.37,48.49Z"/><g id="Group"><path id="Fill-3-Copy-6" class="cls-2" d="M48.19,54.48,92.72,99.14a.57.57,0,0,1,0,.8.54.54,0,0,1-.4.17l-45.57.1A47,47,0,0,1,0,55.66a2.68,2.68,0,0,1,2.55-2.81h.18l41.41-.05A5.7,5.7,0,0,1,48.19,54.48Z"/><path id="Fill-3-Copy-5" class="cls-3" d="M52,44.76v-42A2.69,2.69,0,0,1,54.61,0h.26A46.91,46.91,0,0,1,99.12,46.93L99,92.67a.57.57,0,0,1-.57.57.58.58,0,0,1-.41-.17L53.7,48.8A5.69,5.69,0,0,1,52,44.76Z"/></g></g></g></svg>