<?xml version="1.0" encoding="UTF-8"?>
<svg width="70px" height="105px" viewBox="0 0 70 105" version="1.1" xmlns="http://www.w3.org/2000/svg" xmlns:xlink="http://www.w3.org/1999/xlink">
    <!-- Generator: Sketch 51 (57462) - http://www.bohemiancoding.com/sketch -->
    <title>commissioning copy</title>
    <desc>Created with Sketch.</desc>
    <defs></defs>
    <g id="Page-1" stroke="none" stroke-width="1" fill="none" fill-rule="evenodd">
        <g id="Artboard" transform="translate(-327.000000, -249.000000)">
            <rect fill="#F6F6F6" x="0" y="0" width="1591" height="1636"></rect>
            <g id="Sustainability" transform="translate(171.000000, 166.000000)">
                <g id="commissioning-copy" transform="translate(156.000000, 83.000000)">
                    <rect id="Rectangle-16" fill="#009966" x="0" y="8.75" width="69.0277778" height="96.25" rx="4.51977401"></rect>
                    <rect id="Rectangle-17" fill="#00BF80" x="8.75" y="11.6666667" width="54.4444444" height="86.5277778" rx="3.38983051"></rect>
                    <path d="M33.3383552,31.0145327 L54.129902,31.0145327" id="Line" stroke="#E6FFF7" stroke-width="1.92090401" stroke-linecap="round"></path>
                    <path d="M33.3383552,38.7923105 L54.129902,38.7923105" id="Line-Copy-6" stroke="#E6FFF7" stroke-width="1.92090401" stroke-linecap="round"></path>
                    <path d="M33.3383552,53.3756439 L54.129902,53.3756439" id="Line-Copy-4" stroke="#E6FFF7" stroke-width="1.92090401" stroke-linecap="round"></path>
                    <path d="M33.3383552,61.1534216 L54.129902,61.1534216" id="Line-Copy-7" stroke="#E6FFF7" stroke-width="1.92090401" stroke-linecap="round"></path>
                    <path d="M33.3383552,81.5700883 L54.129902,81.5700883" id="Line-Copy-8" stroke="#E6FFF7" stroke-width="1.92090401" stroke-linecap="round"></path>
                    <path d="M33.3383552,75.736755 L54.129902,75.736755" id="Line-Copy-5" stroke="#E6FFF7" stroke-width="1.92090401" stroke-linecap="round"></path>
                    <path d="M30.0740741,4.55938697 C30.0740741,2.04130708 32.2794862,0 35,0 C37.7205138,0 39.9259259,2.04130708 39.9259259,4.55938697 L51.2123352,4.55938697 C52.4604363,4.55938697 53.4722222,5.57117285 53.4722222,6.81927398 L53.4722222,14.2678908 C53.4722222,15.5159919 52.4604363,16.5277778 51.2123352,16.5277778 L18.7876648,16.5277778 C17.5395637,16.5277778 16.5277778,15.5159919 16.5277778,14.2678908 L16.5277778,6.81927398 C16.5277778,5.57117285 17.5395637,4.55938697 18.7876648,4.55938697 L30.0740741,4.55938697 Z M35,5.12931034 C35.6801284,5.12931034 36.2314815,4.61898357 36.2314815,3.9894636 C36.2314815,3.35994363 35.6801284,2.84961686 35,2.84961686 C34.3198716,2.84961686 33.7685185,3.35994363 33.7685185,3.9894636 C33.7685185,4.61898357 34.3198716,5.12931034 35,5.12931034 Z" id="Combined-Shape" fill="#99FFDD"></path>
                    <rect id="Rectangle-19" stroke="#FFFFFF" stroke-width="1.1299435" x="13.2038606" y="28.7594162" width="11.5089454" height="11.5089454" rx="3.38983051"></rect>
                    <rect id="Rectangle-19-Copy" stroke="#FFFFFF" stroke-width="1.1299435" x="13.2038606" y="51.1205273" width="11.5089454" height="11.5089454" rx="3.38983051"></rect>
                    <rect id="Rectangle-19-Copy-2" stroke="#FFFFFF" stroke-width="1.1299435" x="13.2038606" y="70.5649718" width="11.5089454" height="11.5089454" rx="3.38983051"></rect>
                    <polyline id="Path-7" stroke="#99FFDD" stroke-width="1.69491525" stroke-linecap="round" stroke-linejoin="round" points="15.5555556 35.4353774 18.7600997 38.8888889 27.2222222 27.2222222"></polyline>
                    <polyline id="Path-7-Copy" stroke="#99FFDD" stroke-width="1.69491525" stroke-linecap="round" stroke-linejoin="round" points="15.5555556 56.8242663 18.7600997 60.2777778 27.2222222 48.6111111"></polyline>
                    <polyline id="Path-7-Copy-2" stroke="#99FFDD" stroke-width="1.69491525" stroke-linecap="round" stroke-linejoin="round" points="15.5555556 76.2687108 18.7600997 79.7222222 27.2222222 68.0555556"></polyline>
                </g>
            </g>
        </g>
    </g>
</svg>