<?xml version="1.0" encoding="UTF-8"?>
<svg width="97px" height="93px" viewBox="0 0 97 93" version="1.1" xmlns="http://www.w3.org/2000/svg" xmlns:xlink="http://www.w3.org/1999/xlink">
    <!-- Generator: Sketch 51 (57462) - http://www.bohemiancoding.com/sketch -->
    <title>Group 19</title>
    <desc>Created with Sketch.</desc>
    <defs>
        <path d="M17.9471234,0.285935834 L33.2466282,9.14570612 L33.2466282,26.8652467 L19.8848896,34.6028785 C18.6862798,35.2969799 17.2079671,35.2969799 16.0093573,34.6028785 L4.57666243,27.9823341 C3.38272563,27.2909388 2.64761875,26.0157787 2.64761875,24.6361003 L2.64761875,9.14570612 L17.9471234,0.285935834 Z" id="path-1"></path>
        <path d="M18.298566,0.525831152 L31.669027,8.26851404 C32.8629638,8.95990934 33.5980707,10.2350694 33.5980707,11.6147479 L33.5980707,24.8759956 C33.5980707,26.255674 32.8629638,27.5308341 31.669027,28.2222294 L20.2363322,34.8427738 C19.0377223,35.5368752 17.5594096,35.5368752 16.3607998,34.8427738 L2.99906126,27.105142 L2.99906126,9.38560143 L18.298566,0.525831152 Z" id="path-3"></path>
    </defs>
    <g id="Page-1" stroke="none" stroke-width="1" fill="none" fill-rule="evenodd">
        <g id="Artboard" transform="translate(-330.000000, -1048.000000)">
            <rect fill="#F6F6F6" x="0" y="0" width="1591" height="1636"></rect>
            <g id="Cryptomining" transform="translate(171.000000, 1016.000000)">
                <g id="Group-19" transform="translate(136.000000, 25.000000)">
                    <g id="Group-13" transform="translate(55.263158, 37.719298)">
                        <g id="hexagons">
                            <g id="Path-10-Copy-2-+-Path-10-Copy-3-Mask" transform="translate(15.789474, 0.000000)">
                                <mask id="mask-2" fill="white">
                                    <use xlink:href="#path-1"></use>
                                </mask>
                                <use id="Mask" fill="#66FFCC" transform="translate(17.947123, 18.005476) rotate(-180.000000) translate(-17.947123, -18.005476) " xlink:href="#path-1"></use>
                            </g>
                            <path d="M18.3786534,26.8416206 L33.6781581,35.7013909 L33.6781581,53.4209315 L20.3164196,61.1585632 C19.1178098,61.8526647 17.639497,61.8526647 16.4408872,61.1585632 L5.00819238,54.5380189 C3.81425558,53.8466236 3.0791487,52.5714635 3.0791487,51.191785 L3.0791487,35.7013909 L18.3786534,26.8416206 Z" id="Polygon" fill="#009966"></path>
                            <g id="Path-10-Copy-4-+-Path-10-Copy-5-Mask" transform="translate(30.701754, 26.315789)">
                                <mask id="mask-4" fill="white">
                                    <use xlink:href="#path-3"></use>
                                </mask>
                                <use id="Mask" fill="#00C081" xlink:href="#path-3"></use>
                            </g>
                        </g>
                        <path d="M49.6200034,44.3071166 L62.4587965,36.8390615 C62.9361919,36.5613707 63.5483101,36.7232632 63.8260008,37.2006585 C63.9148139,37.3533424 63.9616002,37.5268265 63.9616002,37.7034621 L63.9616002,52.397899 C63.9616002,52.7546539 63.7715412,53.0843898 63.4628378,53.2632087 L50.6240446,60.7001824 C50.1461472,60.9770082 49.5343232,60.8140076 49.2574973,60.3361102 C49.1692687,60.1837971 49.122807,60.0108941 49.122807,59.8348726 L49.122807,45.1715173 C49.122807,44.8154091 49.3121833,44.4861691 49.6200034,44.3071166 Z" id="Path-11-Copy-3" fill="#00A66F"></path>
                        <path d="M34.7077227,17.9913272 L47.5465158,10.523272 C48.0239112,10.2455812 48.6360294,10.4074737 48.9137201,10.884869 C49.0025332,11.037553 49.0493195,11.211037 49.0493195,11.3876726 L49.0493195,26.6585071 L34.2105263,35.2539968 L34.2105263,18.8557278 C34.2105263,18.4996197 34.3999026,18.1703796 34.7077227,17.9913272 Z" id="Path-11-Copy-6" fill="#52CCA3"></path>
                        <path d="M18.4210526,44.5963253 L33.2598458,35.9649123 L33.2598458,52.9742966 L19.9222902,60.7001824 C19.4443928,60.9770082 18.8325688,60.8140076 18.5557429,60.3361102 C18.4675143,60.1837971 18.4210526,60.0108941 18.4210526,59.8348726 L18.4210526,44.5963253 Z" id="Path-11-Copy-4" fill="#008055"></path>
                    </g>
                    <g id="Group-5">
                        <g id="pickaxe" transform="translate(46.716433, 45.774105) rotate(-315.000000) translate(-46.716433, -45.774105) translate(13.821696, 13.624154)">
                            <path d="M35.1050342,3.19362134 C46.5558229,3.63007435 65.8024481,9.58433622 65.2682387,10.7954993 L62.2302764,12.8006937 C52.2131912,9.56180705 43.4861742,9.03773913 35.1050342,8.60988888 L35.1050342,3.19362134 Z M30.2973419,3.19362134 L30.2973419,8.60988888 C21.916202,9.03773913 13.1891849,9.56180705 3.17209975,12.8006937 L0.134137508,10.7954993 C-0.400071964,9.58433622 18.8465533,3.63007435 30.2973419,3.19362134 Z" id="Combined-Shape" fill="#00BF80" transform="translate(32.701188, 7.997158) rotate(-360.000000) translate(-32.701188, -7.997158) "></path>
                            <path d="M32.1331672,0.00141814875 L33.0832702,0.00133643451 C34.1984606,0.00124052182 35.1025787,0.905203175 35.1026746,2.02039353 C35.1026747,2.02123374 35.1026743,2.02207394 35.1026733,2.02291414 L35.0338666,61.2217438 C35.0322649,62.5997665 33.9147073,63.716026 32.5366836,63.716026 L32.5366836,63.716026 C31.1607289,63.716026 30.0452972,62.6005943 30.0452972,61.2246396 C30.0452972,61.2236743 30.0452978,61.2227091 30.0452989,61.2217438 L30.1141114,2.01830195 C30.1154065,0.904096579 31.0189611,0.00151397679 32.1331672,0.00141814875 Z" id="Rectangle-6" fill="#009966"></path>
                            <rect id="Rectangle-9" fill="#99FFDD" x="29.6052632" y="1.25324651" width="6.07287449" height="9.02337484" rx="3.03643725"></rect>
                        </g>
                    </g>
                    <path d="M84.6491228,48.6842105 L84.6491228,40.7894737" id="Line-2" stroke="#FFFFFF" stroke-linecap="square"></path>
                    <path d="M85.0877193,48.245614 L85.0877193,40.3508772" id="Line-2-Copy" stroke="#FFFFFF" stroke-linecap="square"></path>
                    <path d="M85.0877193,48.245614 L85.0877193,40.3508772" id="Line-2-Copy-2" stroke="#FFFFFF" stroke-linecap="round" stroke-linejoin="bevel"></path>
                    <path d="M91.2280702,51.754386 L91.2280702,43.8596491" id="Line-2-Copy-3" stroke="#FFFFFF" stroke-linecap="round" stroke-linejoin="bevel" transform="translate(91.666667, 47.807018) rotate(-315.000000) translate(-91.666667, -47.807018) "></path>
                    <path d="M92.9824561,57.8947368 L92.9824561,50" id="Line-2-Copy-4" stroke="#FFFFFF" stroke-linecap="round" stroke-linejoin="bevel" transform="translate(93.421053, 53.947368) rotate(-270.000000) translate(-93.421053, -53.947368) "></path>
                    <path d="M90.3508772,64.0350877 L90.3508772,56.1403509" id="Line-2-Copy-5" stroke="#FFFFFF" stroke-linecap="round" stroke-linejoin="bevel" transform="translate(90.789474, 60.087719) rotate(-225.000000) translate(-90.789474, -60.087719) "></path>
                    <path d="M84.2105263,65.7894737 L84.2105263,57.8947368" id="Line-2-Copy-6" stroke="#FFFFFF" stroke-linecap="round" stroke-linejoin="bevel" transform="translate(84.649123, 61.842105) rotate(-180.000000) translate(-84.649123, -61.842105) "></path>
                    <path d="M78.0701754,63.1578947 L78.0701754,55.2631579" id="Line-2-Copy-7" stroke="#FFFFFF" stroke-linecap="round" stroke-linejoin="bevel" transform="translate(78.508772, 59.210526) rotate(-135.000000) translate(-78.508772, -59.210526) "></path>
                </g>
            </g>
        </g>
    </g>
</svg>