<?xml version="1.0" encoding="UTF-8"?>
<svg width="139px" height="87px" viewBox="0 0 139 87" version="1.1" xmlns="http://www.w3.org/2000/svg" xmlns:xlink="http://www.w3.org/1999/xlink">
    <!-- Generator: Sketch 51 (57462) - http://www.bohemiancoding.com/sketch -->
    <title>pwr-deals</title>
    <desc>Created with Sketch.</desc>
    <defs>
        <path d="M37.88311,36.95035 L51.5457,13.69505 C51.84018,13.1938 52.48525,13.02618 52.9865,13.32067 C53.22549,13.46108 53.39945,13.69008 53.47062,13.95797 L71.5194,81.892805 C71.6687,82.454666 71.3342,83.0311547 70.7724,83.1804289 C70.4097,83.2767876 70.0231,83.1727696 69.7578,82.907412 L33.79363,46.94329 L20.13104,70.19859 C19.83656,70.69984 19.19149,70.86746 18.69024,70.57297 C18.45125,70.43256 18.27729,70.20356 18.20611,69.93567 L0.15732,2.00083 C0.00805,1.43897 0.34252,0.86248 0.90438,0.71321 C1.26707,0.61685 1.65363,0.72087 1.91898,0.98623 L37.88311,36.95035 Z" id="path-1"></path>
        <path d="M26.57787,18.19311 C20.07985,17.06499 16.34911,18.15124 14.87969,21.12892 C12.44004,26.0727 7.809997,27.42079 1.779973,25.22593 C0.745046,24.84923 0.207853,23.70815 0.5769331,22.67048 L0.5916683,22.62905 C0.9572593,21.60119 2.086874,21.06431 3.114734,21.42991 C3.119296,21.43153 3.123852,21.43317 3.128402,21.43482 C7.404467,22.99126 9.873012,22.27251 11.32444,19.33131 C13.74609,14.42401 19.22471,12.82884 27.25431,14.22286 L28.16351,14.3807 C28.8033,13.12802 30.09211,12.27212 31.57779,12.27212 L34.29968,12.27212 C35.6016,8.0703 39.46861,5.02295 44.03657,5.02295 L52.91675,5.02295 L52.91675,3.42231 C52.91675,2.0821 53.98673,0.99564 55.30661,0.99564 L55.56342,0.99564 C56.8833,0.99564 57.95328,2.0821 57.95328,3.42231 L57.95328,6.90237 L68.43027,6.90237 C69.81758,6.90237 70.94221,8.04432 70.94221,9.453 C70.94221,10.86167 69.81758,12.00363 68.43027,12.00363 L57.95328,12.00363 L57.95328,21.66919 L68.43027,21.66919 C69.81758,21.66919 70.94221,22.81114 70.94221,24.21982 C70.94221,25.62849 69.81758,26.77045 68.43027,26.77045 L57.95328,26.77045 L57.95328,30.25051 C57.95328,31.59072 56.8833,32.67718 55.56342,32.67718 L55.30661,32.67718 C53.98673,32.67718 52.91675,31.59072 52.91675,30.25051 L52.91675,29.18684 L44.03657,29.18684 C39.27619,29.18684 35.27706,25.87737 34.14895,21.4007 L31.57779,21.4007 C29.76514,21.4007 28.24555,20.12661 27.84021,18.41227 L26.57787,18.19311 Z" id="path-3"></path>
        <path d="M31.9675,15.48223 C38.4698,16.60909 42.2033,15.52202 43.6744,12.54387 C46.1167,7.59932 50.7502,6.2502 56.784,8.44396 C57.8194,8.82039 58.3568,9.96193 57.9872,10.99976 L57.9728,11.04031 C57.6064,12.06928 56.4752,12.6064 55.4463,12.24 C55.4421,12.23854 55.438,12.23705 55.4339,12.23556 C51.1552,10.6799 48.6848,11.3992 47.2318,14.34086 C44.8074,19.24894 39.3247,20.84531 31.2898,19.45285 L30.3781,19.29484 C29.737,20.54612 28.4485,21.4007 26.9634,21.4007 L24.2378,21.4007 C22.9332,25.60287 19.06467,28.64986 14.49526,28.64986 L5.60838,28.64986 L5.60838,30.25051 C5.60838,31.59072 4.53841,32.67718 3.21853,32.67718 L2.95791,32.67718 C1.63803,32.67718 0.56806,31.59072 0.56806,30.25051 L0.56806,3.42231 C0.56806,2.0821 1.63803,0.99564 2.95791,0.99564 L3.21853,0.99564 C4.53841,0.99564 5.60838,2.0821 5.60838,3.42231 L5.60838,4.48598 L14.49526,4.48598 C19.25713,4.48598 23.2579,7.79505 24.3888,12.27212 L26.9634,12.27212 C28.7776,12.27212 30.2984,13.54739 30.7039,15.26325 L31.9675,15.48223 Z" id="path-5"></path>
    </defs>
    <g id="Page-1" stroke="none" stroke-width="1" fill="none" fill-rule="evenodd">
        <g id="Artboard-2" transform="translate(-692.000000, -164.000000)">
            <g id="pwr-deals" transform="translate(692.000000, 164.000000)">
                <g id="Group-3" transform="translate(35.000000, 3.000000)">
                    <mask id="mask-2" fill="white">
                        <use xlink:href="#path-1"></use>
                    </mask>
                    <g id="Clip-2"></g>
                    <polygon id="Fill-1" fill-opacity="0.8" fill="#66FFCC" mask="url(#mask-2)" points="-32.328197 26.67345 20.565 -26.2197 104.0049 57.22019 51.11174 110.11338"></polygon>
                </g>
                <g id="Group-6" transform="translate(0.000000, 28.000000)">
                    <mask id="mask-4" fill="white">
                        <use xlink:href="#path-3"></use>
                    </mask>
                    <g id="Clip-5"></g>
                    <polygon id="Fill-4" fill="#009966" mask="url(#mask-4)" points="-4.539509 -4.00436 75.94221 -4.00436 75.94221 37.67718 -4.539509 37.67718"></polygon>
                </g>
                <g id="Group-14" transform="translate(29.000000, 0.000000)" stroke="#FFFFFF" stroke-linecap="round" stroke-linejoin="bevel" stroke-width="1.3">
                    <path d="M39.02126,29.1371 L39.02126,0.85702" id="Stroke-7"></path>
                    <path d="M53.23633,34.9941 L73.45319,14.99706 L53.23633,34.9941 Z" id="Stroke-8"></path>
                    <path d="M54.01572,45.63381 L82.60668,45.63381 L54.01572,45.63381 Z" id="Stroke-9"></path>
                    <path d="M61.76283,62.00572 L81.97969,82.00276 L61.76283,62.00572 Z" id="Stroke-10"></path>
                    <path d="M0.97991,9.19433 L21.19677,29.19137 L0.97991,9.19433 Z" id="Stroke-11"></path>
                    <path d="M38.83233,58.14476 L38.83233,86.42484 L38.83233,58.14476 Z" id="Stroke-12"></path>
                    <path d="M21.19677,62.00572 L0.97991,82.00276 L21.19677,62.00572 Z" id="Stroke-13"></path>
                </g>
                <g id="Group-17" transform="translate(80.000000, 28.000000)">
                    <mask id="mask-6" fill="white">
                        <use xlink:href="#path-5"></use>
                    </mask>
                    <g id="Clip-16"></g>
                    <polygon id="Fill-15" fill="#00BF80" mask="url(#mask-6)" points="-4.43194 -4.00436 63.1039 -4.00436 63.1039 37.67718 -4.43194 37.67718"></polygon>
                </g>
            </g>
        </g>
    </g>
</svg>