<?xml version="1.0" encoding="UTF-8"?>
<svg width="80px" height="100px" viewBox="0 0 80 100" version="1.1" xmlns="http://www.w3.org/2000/svg" xmlns:xlink="http://www.w3.org/1999/xlink">
    <!-- Generator: Sketch 51 (57462) - http://www.bohemiancoding.com/sketch -->
    <title>hydro-power</title>
    <desc>Created with Sketch.</desc>
    <defs>
        <polygon id="path-1" points="37.96641 26.69648 20.9207 26.69648 23.46465 0 0.60254 37.4709 17.49961 37.4709 14.52207 63.70293"></polygon>
        <path d="M75.09961,45.32715 L61.47187,66.83867 L47.82402,88.38145 L50.7002,63.04199 L52.9377,43.33027 L42.60273,43.33027 L32.16387,43.33027 L37.60078,34.41914 L50.43359,13.38613 L45.50781,8.00781 L39.21836,0 C32.68053,9.40961 27.68066,16.18044 24.21875,20.3125 C21.01928,24.13131 16.0271,29.28678 9.242187,35.77891 C-3.772461,51.31309 -2.763867,74.21602 11.56602,88.5459 C19.20195,96.182031 29.21016,100 39.21836,100 C49.22656,100 59.23477,96.182031 66.8707,88.5459 C78.47676,76.93984 81.34297,59.71094 75.09961,45.32715 Z M18.47539,81.63672 C13.27637,76.4377 10.23496,69.5293 9.911523,62.18418 C9.588086,54.83906 12.01035,47.69004 16.73184,42.0543 C15.08249,51.12747 14.51823,57.72454 15.03906,61.84551 C15.82031,68.02695 18.45781,73.33301 22.61836,77.49355 C21.7349,78.37706 21.0723,79.03968 20.63057,79.48144 C20.15164,79.96039 19.43325,80.67881 18.47539,81.63672 Z" id="path-3"></path>
    </defs>
    <g id="Page-1" stroke="none" stroke-width="1" fill="none" fill-rule="evenodd">
        <g id="Artboard-2" transform="translate(-450.000000, -100.000000)">
            <g id="hydro-power" transform="translate(450.000000, 100.000000)">
                <g id="Group-3" transform="translate(42.000000, 0.000000)">
                    <mask id="mask-2" fill="white">
                        <use xlink:href="#path-1"></use>
                    </mask>
                    <g id="Clip-2"></g>
                    <polygon id="Fill-1" fill="#66FFCC" mask="url(#mask-2)" points="-4.39746 68.70293 42.96641 68.70293 42.96641 -5 -4.39746 -5"></polygon>
                </g>
                <g id="Group-6">
                    <mask id="mask-4" fill="white">
                        <use xlink:href="#path-3"></use>
                    </mask>
                    <g id="Clip-5"></g>
                    <polygon id="Fill-4" fill="#01B5D9" mask="url(#mask-4)" points="-4.888151 105 83.323869 105 83.323869 -5 -4.888151 -5"></polygon>
                </g>
            </g>
        </g>
    </g>
</svg>