<?xml version="1.0" encoding="UTF-8"?>
<svg width="87px" height="84px" viewBox="0 0 87 84" version="1.1" xmlns="http://www.w3.org/2000/svg" xmlns:xlink="http://www.w3.org/1999/xlink">
    <!-- Generator: Sketch 51 (57462) - http://www.bohemiancoding.com/sketch -->
    <title>Group 19 Copy</title>
    <desc>Created with Sketch.</desc>
    <defs>
        <path d="M16.1524111,0.257342251 L29.9219653,8.2311355 L29.9219653,24.178722 L18.0901773,31.0303768 C16.8915675,31.7244782 15.4132547,31.7244782 14.2146449,31.0303768 L4.31190056,25.2958094 C3.11796376,24.6044141 2.38285687,23.329254 2.38285687,21.9495756 L2.38285687,8.2311355 L16.1524111,0.257342251 Z" id="path-1"></path>
        <path d="M16.4687094,0.473248037 L28.3092199,7.32995389 C29.5031567,8.0213492 30.2382636,9.2965093 30.2382636,10.6761877 L30.2382636,22.1654814 C30.2382636,23.5451598 29.5031567,24.8203199 28.3092199,25.5117152 L18.4064756,31.2462825 C17.2078657,31.940384 15.729553,31.940384 14.5309432,31.2462825 L2.69915514,24.3946278 L2.69915514,8.44704129 L16.4687094,0.473248037 Z" id="path-3"></path>
    </defs>
    <g id="Page-1" stroke="none" stroke-width="1" fill="none" fill-rule="evenodd">
        <g id="Artboard-2" transform="translate(-221.000000, -396.000000)">
            <g id="Group-19-Copy" transform="translate(200.000000, 390.000000)">
                <g id="Group-13" transform="translate(49.736842, 33.947368)">
                    <g id="hexagons">
                        <g id="Path-10-Copy-2-+-Path-10-Copy-3-Mask" transform="translate(14.210526, 0.000000)">
                            <mask id="mask-2" fill="white">
                                <use xlink:href="#path-1"></use>
                            </mask>
                            <use id="Mask" fill="#66FFCC" transform="translate(16.152411, 16.204929) rotate(-180.000000) translate(-16.152411, -16.204929) " xlink:href="#path-1"></use>
                        </g>
                        <path d="M16.5407881,24.1574586 L30.3103423,32.1312518 L30.3103423,48.0788383 L18.4785543,54.9304931 C17.2799444,55.6245945 15.8016317,55.6245945 14.6030219,54.9304931 L4.70027751,49.1959257 C3.50634071,48.5045304 2.77123383,47.2293703 2.77123383,45.8496919 L2.77123383,32.1312518 L16.5407881,24.1574586 Z" id="Polygon" fill="#009966"></path>
                        <g id="Path-10-Copy-4-+-Path-10-Copy-5-Mask" transform="translate(27.631579, 23.684211)">
                            <mask id="mask-4" fill="white">
                                <use xlink:href="#path-3"></use>
                            </mask>
                            <use id="Mask" fill="#00C081" xlink:href="#path-3"></use>
                        </g>
                    </g>
                    <path d="M44.7077227,39.8474841 L56.0626365,33.2425702 C56.5400318,32.9648794 57.15215,33.126772 57.4298408,33.6041673 C57.5186539,33.7568512 57.5654402,33.9303353 57.5654402,34.1069709 L57.5654402,47.1004694 C57.5654402,47.4572243 57.3753812,47.7869601 57.0666777,47.9657791 L45.7117639,54.5432037 C45.2338665,54.8200296 44.6220425,54.657029 44.3452166,54.1791316 C44.256988,54.0268185 44.2105263,53.8539155 44.2105263,53.677894 L44.2105263,40.7118848 C44.2105263,40.3557766 44.3999026,40.0265366 44.7077227,39.8474841 Z" id="Path-11-Copy-3" fill="#00A66F"></path>
                    <path d="M31.2866701,16.1632736 L42.6415839,9.5583597 C43.1189792,9.28066892 43.7310974,9.44256143 44.0087882,9.91995673 C44.0976012,10.0726407 44.1443875,10.2461247 44.1443875,10.4227604 L44.1443875,23.9926564 L30.7894737,31.7285971 L30.7894737,17.0276742 C30.7894737,16.6715661 30.9788499,16.3423261 31.2866701,16.1632736 Z" id="Path-11-Copy-6" fill="#52CCA3"></path>
                    <path d="M16.5789474,40.1366927 L29.9338612,32.3684211 L29.9338612,47.676867 L18.0801849,54.5432037 C17.6022876,54.8200296 16.9904635,54.657029 16.7136377,54.1791316 C16.6254091,54.0268185 16.5789474,53.8539155 16.5789474,53.677894 L16.5789474,40.1366927 Z" id="Path-11-Copy-4" fill="#008055"></path>
                </g>
                <g id="Group-5">
                    <g id="pickaxe" transform="translate(42.044790, 41.196694) rotate(-315.000000) translate(-42.044790, -41.196694) translate(12.439526, 12.261739)">
                        <path d="M31.5945308,2.87425921 C41.9002406,3.26706691 59.2222033,8.6259026 58.7414148,9.71594937 L56.0072488,11.5206243 C46.9918721,8.60562634 39.1375568,8.13396521 31.5945308,7.74889999 L31.5945308,2.87425921 Z M27.2676077,2.87425921 L27.2676077,7.74889999 C19.7245818,8.13396521 11.8702664,8.60562634 2.85488978,11.5206243 L0.120723757,9.71594937 C-0.360064767,8.6259026 16.961898,3.26706691 27.2676077,2.87425921 Z" id="Combined-Shape" fill="#00BF80" transform="translate(29.431069, 7.197442) rotate(-360.000000) translate(-29.431069, -7.197442) "></path>
                        <path d="M29.1215216,0.00125898901 L29.5727679,0.00122017928 C30.6879583,0.00112426659 31.5920764,0.90508692 31.5921723,2.02027728 C31.5921724,2.02111748 31.5921719,2.02195768 31.592171,2.02279789 L31.5304799,55.0995695 C31.5290384,56.3397899 30.5232365,57.3444234 29.2830153,57.3444234 L29.2830153,57.3444234 C28.044656,57.3444234 27.0407675,56.3405349 27.0407675,55.1021756 C27.0407675,55.1013069 27.040768,55.1004382 27.040769,55.0995695 L27.1024659,2.01814279 C27.1037609,0.903937419 28.0073155,0.00135481705 29.1215216,0.00125898901 Z" id="Rectangle-6" fill="#009966"></path>
                        <rect id="Rectangle-9" fill="#99FFDD" x="26.6447368" y="1.12792185" width="5.46558704" height="8.12103735" rx="2.73279352"></rect>
                    </g>
                </g>
                <path d="M76.1842105,43.8157895 L76.1842105,36.7105263" id="Line-2" stroke="#FFFFFF" stroke-linecap="square"></path>
                <path d="M76.5789474,43.4210526 L76.5789474,36.3157895" id="Line-2-Copy" stroke="#FFFFFF" stroke-linecap="square"></path>
                <path d="M76.5789474,43.4210526 L76.5789474,36.3157895" id="Line-2-Copy-2" stroke="#FFFFFF" stroke-linecap="round" stroke-linejoin="bevel"></path>
                <path d="M82.1052632,46.5789474 L82.1052632,39.4736842" id="Line-2-Copy-3" stroke="#FFFFFF" stroke-linecap="round" stroke-linejoin="bevel" transform="translate(82.500000, 43.026316) rotate(-315.000000) translate(-82.500000, -43.026316) "></path>
                <path d="M83.6842105,52.1052632 L83.6842105,45" id="Line-2-Copy-4" stroke="#FFFFFF" stroke-linecap="round" stroke-linejoin="bevel" transform="translate(84.078947, 48.552632) rotate(-270.000000) translate(-84.078947, -48.552632) "></path>
                <path d="M81.3157895,57.6315789 L81.3157895,50.5263158" id="Line-2-Copy-5" stroke="#FFFFFF" stroke-linecap="round" stroke-linejoin="bevel" transform="translate(81.710526, 54.078947) rotate(-225.000000) translate(-81.710526, -54.078947) "></path>
                <path d="M75.7894737,59.2105263 L75.7894737,52.1052632" id="Line-2-Copy-6" stroke="#FFFFFF" stroke-linecap="round" stroke-linejoin="bevel" transform="translate(76.184211, 55.657895) rotate(-180.000000) translate(-76.184211, -55.657895) "></path>
                <path d="M70.2631579,56.8421053 L70.2631579,49.7368421" id="Line-2-Copy-7" stroke="#FFFFFF" stroke-linecap="round" stroke-linejoin="bevel" transform="translate(70.657895, 53.289474) rotate(-135.000000) translate(-70.657895, -53.289474) "></path>
            </g>
        </g>
    </g>
</svg>