<?xml version="1.0" encoding="UTF-8"?>
<svg width="69px" height="105px" viewBox="0 0 69 105" version="1.1" xmlns="http://www.w3.org/2000/svg" xmlns:xlink="http://www.w3.org/1999/xlink">
    <!-- Generator: Sketch 51 (57462) - http://www.bohemiancoding.com/sketch -->
    <title>commissioning copy</title>
    <desc>Created with Sketch.</desc>
    <defs></defs>
    <g id="Page-1" stroke="none" stroke-width="1" fill="none" fill-rule="evenodd">
        <g id="Artboard-2" transform="translate(-62.000000, -577.000000)">
            <g id="commissioning-copy" transform="translate(62.000000, 577.000000)">
                <rect id="Rectangle-16" fill="#009966" x="0" y="9" width="69" height="96" rx="4.51977401"></rect>
                <rect id="Rectangle-17" fill="#00BF80" x="9" y="12" width="54" height="87" rx="3.38983051"></rect>
                <path d="M33.2776579,30.9006623 L53.6911765,30.9006623" id="Line" stroke="#E6FFF7" stroke-width="1.92090401" stroke-linecap="round"></path>
                <path d="M33.2776579,38.9006623 L53.6911765,38.9006623" id="Line-Copy-6" stroke="#E6FFF7" stroke-width="1.92090401" stroke-linecap="round"></path>
                <path d="M33.2776579,53.9006623 L53.6911765,53.9006623" id="Line-Copy-4" stroke="#E6FFF7" stroke-width="1.92090401" stroke-linecap="round"></path>
                <path d="M33.2776579,60.9006623 L53.6911765,60.9006623" id="Line-Copy-7" stroke="#E6FFF7" stroke-width="1.92090401" stroke-linecap="round"></path>
                <path d="M33.2776579,81.9006623 L53.6911765,81.9006623" id="Line-Copy-8" stroke="#E6FFF7" stroke-width="1.92090401" stroke-linecap="round"></path>
                <path d="M33.2776579,75.9006623 L53.6911765,75.9006623" id="Line-Copy-5" stroke="#E6FFF7" stroke-width="1.92090401" stroke-linecap="round"></path>
                <path d="M30.5666667,4.68965517 C30.5666667,2.09963014 32.7753952,0 35.5,0 C38.2246048,0 40.4333333,2.09963014 40.4333333,4.68965517 L51.740113,4.68965517 C52.9882141,4.68965517 54,5.70144105 54,6.94954218 L54,14.740113 C54,15.9882141 52.9882141,17 51.740113,17 L19.259887,17 C18.0117859,17 17,15.9882141 17,14.740113 L17,6.94954218 C17,5.70144105 18.0117859,4.68965517 19.259887,4.68965517 L30.5666667,4.68965517 Z M35.5,5.27586207 C36.1811512,5.27586207 36.7333333,4.75095453 36.7333333,4.10344828 C36.7333333,3.45594202 36.1811512,2.93103448 35.5,2.93103448 C34.8188488,2.93103448 34.2666667,3.45594202 34.2666667,4.10344828 C34.2666667,4.75095453 34.8188488,5.27586207 35.5,5.27586207 Z" id="Combined-Shape" fill="#99FFDD"></path>
                <rect id="Rectangle-19" stroke="#FFFFFF" stroke-width="1.1299435" x="13.5649718" y="28.5649718" width="11.8700565" height="11.8700565" rx="3.38983051"></rect>
                <rect id="Rectangle-19-Copy" stroke="#FFFFFF" stroke-width="1.1299435" x="13.5649718" y="51.5649718" width="11.8700565" height="11.8700565" rx="3.38983051"></rect>
                <rect id="Rectangle-19-Copy-2" stroke="#FFFFFF" stroke-width="1.1299435" x="13.5649718" y="70.5649718" width="11.8700565" height="11.8700565" rx="3.38983051"></rect>
                <polyline id="Path-7" stroke="#99FFDD" stroke-width="1.69491525" stroke-linecap="round" stroke-linejoin="round" points="16 35.4478168 19.2961025 39 28 27"></polyline>
                <polyline id="Path-7-Copy" stroke="#99FFDD" stroke-width="1.69491525" stroke-linecap="round" stroke-linejoin="round" points="16 57.4478168 19.2961025 61 28 49"></polyline>
                <polyline id="Path-7-Copy-2" stroke="#99FFDD" stroke-width="1.69491525" stroke-linecap="round" stroke-linejoin="round" points="16 76.4478168 19.2961025 80 28 68"></polyline>
            </g>
        </g>
    </g>
</svg>