<?xml version="1.0" encoding="UTF-8"?>
<svg width="75px" height="94px" viewBox="0 0 75 94" version="1.1" xmlns="http://www.w3.org/2000/svg" xmlns:xlink="http://www.w3.org/1999/xlink">
    <!-- Generator: Sketch 51 (57462) - http://www.bohemiancoding.com/sketch -->
    <title>hydro-power</title>
    <desc>Created with Sketch.</desc>
    <defs>
        <polygon id="path-1" points="35.5935094 25.02795 19.6131563 25.02795 21.9981094 0 0.56488125 35.1289687 16.4058844 35.1289687 13.6144406 59.7214969"></polygon>
        <path d="M70.4058844,42.4942031 L57.6298781,62.6612531 L44.8350188,82.8576094 L47.5314375,59.1018656 L49.6290938,40.6221281 L39.9400594,40.6221281 L30.1536281,40.6221281 L35.2507313,32.2679438 L47.2814906,12.5494969 L42.6635719,7.50732187 L36.7672125,0 C30.6379969,8.82150937 25.9506188,15.1691625 22.7050781,19.0429688 C19.705575,22.6231031 15.0254063,27.4563562 8.66455031,33.5427281 C-3.53668219,48.1060219 -2.59112531,69.5775188 10.8431438,83.0117812 C18.0018281,90.1706541 27.384525,93.75 36.7672125,93.75 C46.1499,93.75 55.5325969,90.1706541 62.6912813,83.0117812 C73.5719625,72.1311 76.2590344,55.9790062 70.4058844,42.4942031 Z M17.3206781,76.534425 C12.4465969,71.6603438 9.595275,65.1837188 9.29205281,58.2976687 C8.98883063,51.4116187 11.2597031,44.7094125 15.6861,39.4259062 C14.1398344,47.9320031 13.6108406,54.1167562 14.0991188,57.9801656 C14.8315406,63.7752656 17.3041969,68.7496969 21.2047125,72.6502031 C20.3764688,73.4784938 19.7552813,74.0997 19.3411594,74.51385 C18.8921625,74.9628656 18.2186719,75.6363844 17.3206781,76.534425 Z" id="path-3"></path>
    </defs>
    <g id="Page-1" stroke="none" stroke-width="1" fill="none" fill-rule="evenodd">
        <g id="Artboard-2" transform="translate(-450.000000, -100.000000)">
            <g id="hydro-power" transform="translate(450.000000, 100.000000)">
                <g id="Group-3" transform="translate(39.375000, 0.000000)">
                    <mask id="mask-2" fill="white">
                        <use xlink:href="#path-1"></use>
                    </mask>
                    <g id="Clip-2"></g>
                    <polygon id="Fill-1" fill="#66FFCC" mask="url(#mask-2)" points="-4.12261875 64.4089969 40.2810094 64.4089969 40.2810094 -4.6875 -4.12261875 -4.6875"></polygon>
                </g>
                <g id="Group-6">
                    <mask id="mask-4" fill="white">
                        <use xlink:href="#path-3"></use>
                    </mask>
                    <g id="Clip-5"></g>
                    <polygon id="Fill-4" fill="#01B5D9" mask="url(#mask-4)" points="-4.58264156 98.4375 78.1161272 98.4375 78.1161272 -4.6875 -4.58264156 -4.6875"></polygon>
                </g>
            </g>
        </g>
    </g>
</svg>