<?xml version="1.0" standalone="no"?>
<!DOCTYPE svg PUBLIC "-//W3C//DTD SVG 20010904//EN"
 "http://www.w3.org/TR/2001/REC-SVG-20010904/DTD/svg10.dtd">
<svg version="1.0" xmlns="http://www.w3.org/2000/svg"
 width="299.000000pt" height="299.000000pt" viewBox="0 0 299.000000 299.000000"
 preserveAspectRatio="xMidYMid meet">
<metadata>
Created by potrace 1.11, written by Peter Selinger 2001-2013
</metadata>
<g transform="translate(0.000000,299.000000) scale(0.100000,-0.100000)"
fill="#000000" stroke="none">
<path d="M1600 2962 l-25 -20 -3 -666 c-2 -572 0 -670 12 -695 8 -15 238 -251
511 -522 734 -731 857 -850 869 -846 13 4 16 1453 4 1547 -37 269 -142 511
-312 715 -58 70 -138 150 -199 197 -23 18 -48 38 -55 45 -23 22 -178 112 -243
141 -145 65 -316 110 -454 119 -70 4 -83 2 -105 -15z"/>
<path d="M360 1410 c-168 -3 -306 -7 -307 -8 -36 -36 -40 -46 -38 -90 15 -282
128 -568 316 -798 185 -227 449 -394 737 -468 157 -41 209 -43 979 -42 576 1
737 4 741 14 4 14 -1339 1356 -1380 1378 -23 12 -95 15 -385 17 -197 1 -495 0
-663 -3z"/>
</g>
</svg>
